# xmcd
#
# Track frame offsets:
# 150
# 12276
# 23370
# 34416
# 46258
# 61793
# 73429
# 84266
# 95512
# 106433
# 118757
# 130201
#
# Disc length: 1929 seconds
#
# Revision: 1
# Processed by: cddbd v1.5.1PL0 Copyright (c) Steve Scherf et al.
# Submitted via: CedeCatalogueitor 2.6.0.6 http://personales.ya.com/cdcatalogueitor
#
DISCID=9a07870c
DTITLE=J.J. CALE - NATURALLY
DYEAR=1972
DGENRE=
TTITLE0=Call Me The Breeze
TTITLE1=Call The Doctor
TTITLE2=Don't Go To Strangers
TTITLE3=Woman I Love
TTITLE4=Magnolia
TTITLE5=Clyde
TTITLE6=Crazy Mama
TTITLE7=Nowhere To Run
TTITLE8=After Midnight
TTITLE9=River Runs Deep
TTITLE10=Bringing It Back
TTITLE11=Crying Eyes
EXTD=
EXTT0=
EXTT1=
EXTT2=
EXTT3=
EXTT4=
EXTT5=
EXTT6=
EXTT7=
EXTT8=
EXTT9=
EXTT10=
EXTT11=
PLAYORDER=
